<svg width="24" height="24" viewBox="0 0 24 24" fill="none" xmlns="http://www.w3.org/2000/svg">
<path fill-rule="evenodd" clip-rule="evenodd" d="M4 0H19.9639C22.1641 0 23.9639 1.80005 23.9629 4V14.4885C23.9629 16.6885 22.1621 18.4885 19.9629 18.4885H14.3652L7.69824 23.8735V18.4885H4C1.7998 18.4885 0 16.6885 0 14.4885V4C0 1.80005 1.7998 0 4 0ZM19.9639 15.988C20.7773 15.988 21.4639 15.3015 21.4639 14.488V4C21.4639 3.18701 20.7773 2.5 19.9639 2.5H4C3.18652 2.5 2.5 3.18701 2.5 4V14.4871C2.5 15.3005 3.18652 15.9871 4 15.9871H7.69824H10.1982V18.4871V18.6395L12.7939 16.543L13.4814 15.988H14.3652H19.9639Z" transform="translate(0 0.0450439)" fill="black"/>
<path d="M1.4565 2.913C2.2609 2.913 2.913 2.2609 2.913 1.4565C2.913 0.652097 2.2609 0 1.4565 0C0.652097 0 0 0.652097 0 1.4565C0 2.2609 0.652097 2.913 1.4565 2.913Z" transform="translate(5.39746 7.8335)" fill="black"/>
<path d="M1.4565 2.913C2.2609 2.913 2.913 2.2609 2.913 1.4565C2.913 0.652097 2.2609 0 1.4565 0C0.652097 0 0 0.652097 0 1.4565C0 2.2609 0.652097 2.913 1.4565 2.913Z" transform="translate(10.5264 7.8335)" fill="black"/>
<path d="M1.4565 2.913C2.2609 2.913 2.913 2.2609 2.913 1.4565C2.913 0.652097 2.2609 0 1.4565 0C0.652097 0 0 0.652097 0 1.4565C0 2.2609 0.652097 2.913 1.4565 2.913Z" transform="translate(15.6543 7.8335)" fill="black"/>
</svg>
