<svg width="24" height="24" viewBox="0 0 24 24" fill="none" xmlns="http://www.w3.org/2000/svg">
<path fill-rule="evenodd" clip-rule="evenodd" d="M19.2162 11.9094L19.1397 11.8269C19.1422 11.8548 19.1555 11.8803 19.1555 11.9094C19.1555 11.9386 19.1422 11.9641 19.1397 11.992L19.2162 11.9094ZM4.60718 11.3023H18.5484C18.5921 11.3023 18.6322 11.3181 18.6735 11.3278L15.5904 8.02007C15.3609 7.776 15.3742 7.39107 15.6195 7.16279C15.8612 6.9345 16.2497 6.94786 16.4768 7.19315L20.1828 11.1651C20.4232 11.3339 20.5677 11.6083 20.5677 11.9094C20.5677 12.2106 20.4232 12.485 20.1828 12.6538L16.4768 16.6257C16.3578 16.7544 16.1963 16.8188 16.0336 16.8188C15.8855 16.8188 15.7361 16.7654 15.6195 16.6561C15.3742 16.4278 15.3609 16.0429 15.5904 15.7988L18.6735 12.4911C18.6322 12.5008 18.5921 12.5166 18.5484 12.5166H4.60718C4.27082 12.5166 4.00003 12.2446 4.00003 11.9094C4.00003 11.5743 4.27082 11.3023 4.60718 11.3023Z" fill="#979797"/>
</svg>
