<svg width="109.05" height="109.05" viewBox="0 0 24 24" xmlns="http://www.w3.org/2000/svg" xmlns:xlink="http://www.w3.org/1999/xlink"><defs><path d="M14.608 5.542a.256.256 0 0 1 .31.185 7.523 7.523 0 0 1-.844 5.734 7.523 7.523 0 0 1-4.651 3.459 7.527 7.527 0 0 1-5.735-.844A7.524 7.524 0 0 1 .23 9.423C-.79 5.374 1.676 1.25 5.726.23a7.54 7.54 0 0 1 5.587.758.256.256 0 0 1-.252.444 7.03 7.03 0 0 0-5.21-.707A7.07 7.07 0 0 0 .724 9.3c.806 3.2 3.69 5.34 6.85 5.34.569 0 1.146-.07 1.723-.215a7.017 7.017 0 0 0 4.338-3.225 7.015 7.015 0 0 0 .787-5.348.255.255 0 0 1 .185-.31zm1.237-3.847a.255.255 0 0 1-.0remoteShellVulner6L7.745 9.3a.255.255 0 0 1-.353-.012L4.413 6.244a.255.255 0 0 1 .365-.357l2.808 2.868 7.898-7.08a.255.255 0 0 1 .36.02z" id="a"/></defs><g fill="none" fill-rule="evenodd"><path d="M0 0h24v24H0z"/><use fill="#2AD178" xlink:href="#a" transform="translate(4 4)"/></g></svg>