<svg width="48" height="46" viewBox="0 0 48 46" fill="none" xmlns="http://www.w3.org/2000/svg">
<path d="M42.259 17.8601C42.1613 17.4715 4remoteShellVulner969 17.0767 42.7859 16.9789C43.175 16.8817 43.5688 17.1168 43.6671 17.5054C45.0708 23.0825 44.2187 28.872 41.2676 33.8075C38.3169 38.7434 33.6209 42.2346 28.0438 43.6383C26.2898 44.0796 24.514 44.2978 22.7513 44.2978C18.9088 44.2978 15.1254 43.2613 11.7417 41.2388C6.80626 38.2881 3.31514 33.5917 1.91143 28.0151C-0.986004 16.5028 6.02239 4.78005 17.5342 1.88264C22.9371 0.523443 28.5771 1.28893 33.4192 4.03829C33.7671 4.23667 33.8895 4.67941 33.6916 5.0278C33.4932 5.37667 33.0495 5.49716 32.7016 5.3007C28.1866 2.73667 22.9254 2.02248 17.8888 3.29022C7.15271 5.99215 0.617055 16.9247 3.31901 27.6609C5.60869 36.7576 13.8093 42.8394 22.7909 42.8399C24.409 42.8399 26.0508 42.643 27.6896 42.2307C32.8903 40.9213 37.2703 37.6654 40.0216 33.0628C42.7738 28.4597 43.5683 23.0607 42.259 17.8601Z" fill="#2AD178"/>
<path d="M45.2758 5.98823C45.5743 5.72066 46.0326 5.7463 46.3006 6.04436C46.5682 6.34291 46.543 6.80162 46.2445 7.06921L23.2737 27.6594C23.1353 27.7832 22.9621 27.8447 22.7893 27.8447C22.6006 27.8447 22.4124 27.7711 22.2706 27.6265L13.8029 18.9773C13.5222 18.6908 13.5276 18.2316 13.8135 17.951C14.1 17.6703 14.5592 17.6752 14.8398 17.9616L22.8223 26.1148L45.2758 5.98823Z" fill="#2AD178"/>
<path d="M42.259 17.8601C42.1613 17.4715 4remoteShellVulner969 17.0767 42.7859 16.9789C43.175 16.8817 43.5688 17.1168 43.6671 17.5054C45.0708 23.0825 44.2187 28.872 41.2676 33.8075C38.3169 38.7434 33.6209 42.2346 28.0438 43.6383C26.2898 44.0796 24.514 44.2978 22.7513 44.2978C18.9088 44.2978 15.1254 43.2613 11.7417 41.2388C6.80626 38.2881 3.31514 33.5917 1.91143 28.0151C-0.986004 16.5028 6.02239 4.78005 17.5342 1.88264C22.9371 0.523443 28.5771 1.28893 33.4192 4.03829C33.7671 4.23667 33.8895 4.67941 33.6916 5.0278C33.4932 5.37667 33.0495 5.49716 32.7016 5.3007C28.1866 2.73667 22.9254 2.02248 17.8888 3.29022C7.15271 5.99215 0.617055 16.9247 3.31901 27.6609C5.60869 36.7576 13.8093 42.8394 22.7909 42.8399C24.409 42.8399 26.0508 42.643 27.6896 42.2307C32.8903 40.9213 37.2703 37.6654 40.0216 33.0628C42.7738 28.4597 43.5683 23.0607 42.259 17.8601Z" stroke="#2AD178" stroke-width="2"/>
<path d="M45.2758 5.98823C45.5743 5.72066 46.0326 5.7463 46.3006 6.04436C46.5682 6.34291 46.543 6.80162 46.2445 7.06921L23.2737 27.6594C23.1353 27.7832 22.9621 27.8447 22.7893 27.8447C22.6006 27.8447 22.4124 27.7711 22.2706 27.6265L13.8029 18.9773C13.5222 18.6908 13.5276 18.2316 13.8135 17.951C14.1 17.6703 14.5592 17.6752 14.8398 17.9616L22.8223 26.1148L45.2758 5.98823Z" stroke="#2AD178" stroke-width="2"/>
</svg>
