<svg width="24" height="24" viewBox="0 0 24 24" fill="none" xmlns="http://www.w3.org/2000/svg">
<path fill-rule="evenodd" clip-rule="evenodd" d="M4 12C4 7.58203 7.582 4 12 4C16.418 4 20 7.58203 20 12C20 16.418 16.418 20 12 20C7.582 20 4 16.418 4 12ZM5.25 12C5.25 15.722 8.27802 18.75 12 18.75C15.722 18.75 18.75 15.722 18.75 12C18.75 8.27795 15.722 5.25 12 5.25C8.27802 5.25 5.25 8.27795 5.25 12Z" fill="#FF053F"/>
<path d="M6 8.10812L7.01098 7.00001L17.7541 16.8014L16.7431 17.9095L6 8.10812Z" fill="#FF053F"/>
</svg>
