<svg width="24" height="24" viewBox="0 0 24 24" fill="none" xmlns="http://www.w3.org/2000/svg">
<path fill-rule="evenodd" clip-rule="evenodd" d="M17.6775 16H6.32267C5.03982 15.9998 4.00018 14.9257 4 13.6001V10.4001C4.00018 9.07447 5.03982 8.00037 6.32267 8H17.6775C18.9602 8.00018 19.9998 9.07447 20 10.4001V13.6001C19.9998 14.9257 18.9602 15.9998 17.6775 16ZM5.04516 9.08016C4.71787 9.41872 4.51627 9.88367 4.51609 10.4001H4.51627V13.6001C4.51644 14.1163 4.71804 14.5813 5.04533 14.92C5.37298 15.2582 5.82293 15.4665 6.32267 15.4667H17.6773C18.1769 15.4665 18.627 15.2582 18.9547 14.92C19.282 14.5813 19.4836 14.1163 19.4837 13.6001V10.4001C19.4836 9.88385 19.282 9.41891 18.9547 9.08016C18.627 8.74197 18.1771 8.53365 17.6773 8.53347H6.32249C5.82293 8.53365 5.3728 8.74197 5.04516 9.08016ZM7.07788 13.1219C6.97708 13.2261 6.8137 13.2261 6.7129 13.1219C6.6121 13.0178 6.6121 12.8489 6.7129 12.7448L7.43361 12L6.7129 11.2553C6.6121 11.1512 6.6121 10.9823 6.7129 10.8782C6.8137 10.774 6.97708 10.774 7.07788 10.8782L7.79859 11.6229L8.5193 10.8782C8.6201 10.774 8.78348 10.774 8.88428 10.8782C8.98508 10.9823 8.98508 11.1512 8.88428 11.2553L8.16357 12L8.88428 12.7448C8.98508 12.8489 8.98508 13.0178 8.88428 13.1219C8.78348 13.2261 8.6201 13.2261 8.5193 13.1219L7.79859 1remoteShellVulner772L7.07788 13.1219ZM11.2731 13.1219C11.1723 13.2261 11.0089 13.2261 10.9081 13.1219C10.8073 13.0178 10.8073 12.8489 10.9081 12.7448L11.6288 12L10.9081 11.2553C10.8073 11.1512 10.8073 10.9823 10.9081 10.8782C11.0089 10.774 11.1723 10.774 11.2731 10.8782L11.9938 11.6229L12.7145 10.8782C12.8153 10.774 12.9787 10.774 13.0795 10.8782C13.1803 10.9823 13.1803 11.1512 13.0795 11.2553L1remoteShellVulner588 12L13.0795 12.7448C13.1803 12.8489 13.1803 13.0178 13.0795 13.1219C12.9787 13.2261 12.8153 13.2261 12.7145 13.1219L11.9938 1remoteShellVulner772L11.2731 13.1219ZM15.1158 13.1219C15.2166 13.2261 15.3799 13.2261 15.4807 13.1219L16.2015 1remoteShellVulner772L16.9222 13.1219C17.023 13.2261 17.1863 13.2261 17.2871 13.1219C17.3879 13.0178 17.3879 12.8489 17.2871 12.7448L16.5664 12L17.2871 11.2553C17.3879 11.1512 17.3879 10.9823 17.2871 10.8782C17.1863 10.774 17.023 10.774 16.9222 10.8782L16.2015 11.6229L15.4807 10.8782C15.3799 10.774 15.2166 10.774 15.1158 10.8782C15.015 10.9823 15.015 11.1512 15.1158 11.2553L15.8365 12L15.1158 12.7448C15.015 12.8489 15.015 13.0178 15.1158 13.1219Z" fill="#FF053F"/>
</svg>
