<svg width="17" height="10" viewBox="0 0 17 10" fill="none" xmlns="http://www.w3.org/2000/svg">
<path fill-rule="evenodd" clip-rule="evenodd" d="M1.3515 4.90943L1.428 4.82686C1.42557 4.85479 1.41221 4.88029 1.41221 4.90943C1.41221 4.93857 1.42557 4.96407 1.428 4.992L1.3515 4.90943ZM15.9606 4.30229H2.01936C1.97564 4.30229 1.93557 4.31807 1.89429 4.32779L4.97736 1.02007C5.20686 0.776003 5.1935 0.391075 4.94821 0.162789C4.70657 -0.0654968 4.318 -0.0521397 4.09093 0.193146L0.384929 4.16507C0.1445 4.33386 0 4.60829 0 4.90943C0 5.21057 0.1445 5.485 0.384929 5.65379L4.09093 9.62572C4.20993 9.75443 4.37143 9.81879 4.53414 9.81879C4.68229 9.81879 4.83164 9.76536 4.94821 9.65607C5.1935 9.42779 5.20686 9.04286 4.97736 8.79879L1.89429 5.49107C1.93557 5.50079 1.97564 5.51657 2.01936 5.51657H15.9606C16.2969 5.51657 16.5677 5.24457 16.5677 4.90943C16.5677 4.57429 16.2969 4.30229 15.9606 4.30229Z" fill="black"/>
</svg>
