<svg width="12" height="9" viewBox="0 0 12 9" fill="none" xmlns="http://www.w3.org/2000/svg">
<path fill-rule="evenodd" clip-rule="evenodd" d="M9.8875 0.112504C9.73749 -0.0375014 9.49363 -0.0375014 9.34363 0.112504L3.46109 5.99427L0.656371 3.18955C0.506366 3.03954 0.26251 3.03954 0.112504 3.18955C-0.0375014 3.33955 -0.0375014 3.58341 0.112504 3.73341L3.02569 6.64737C3.14185 6.76353 3.29647 6.82738 3.46109 6.82738C3.62649 6.82738 3.78111 6.76353 3.8965 6.64737L9.8875 0.656371C10.0375 0.506366 10.0375 0.26251 9.8875 0.112504Z" transform="translate(1 1)" fill="#231F20"/>
<path d="M9.8875 0.112504C9.73749 -0.0375014 9.49363 -0.0375014 9.34363 0.112504L3.46109 5.99427L0.656371 3.18955C0.506366 3.03954 0.26251 3.03954 0.112504 3.18955C-0.0375014 3.33955 -0.0375014 3.58341 0.112504 3.73341L3.02569 6.64737C3.14185 6.76353 3.29647 6.82738 3.46109 6.82738C3.62649 6.82738 3.78111 6.76353 3.8965 6.64737L9.8875 0.656371C10.0375 0.506366 10.0375 0.26251 9.8875 0.112504" transform="translate(1 1)" stroke="#40E18B"/>
</svg>
