<svg width="32" height="32" viewBox="0 0 32 32" fill="none" xmlns="http://www.w3.org/2000/svg">
<rect width="32" height="32" fill="black" fill-opacity="0"/>
<path fill-rule="evenodd" clip-rule="evenodd" d="M19.2383 10C19.2383 8.16284 17.7422 6.66675 15.9062 6.66675C14.0684 6.66675 12.5723 8.16284 12.5723 10C12.5723 11.8374 14.0684 13.3335 15.9062 13.3335C17.7422 13.3335 19.2383 11.8374 19.2383 10ZM9.33398 22.8872C9.33398 19.2632 12.2812 16.3152 15.9062 16.3152C19.5293 16.3152 22.4785 19.2632 22.4785 22.8872V25.6484C22.4785 26.0178 22.1797 26.3152 21.8105 26.3152C21.6152 26.3152 21.4414 26.2322 21.3203 26.0991C21.2109 25.9807 21.1445 25.8225 21.1445 25.6484V22.8872C21.1445 19.9993 18.7949 17.6484 15.9062 17.6484C13.0176 17.6484 10.668 19.9993 10.668 22.8872V25.6484C10.668 26.0178 10.3691 26.3152 10 26.3152C9.63281 26.3152 9.33398 26.0178 9.33398 25.6484V22.8872ZM15.9069 14.6666C18.4842 14.6666 20.5736 12.5773 20.5736 9.99992C20.5736 7.42259 18.4842 5.33325 15.9069 5.33325C13.3296 5.33325 11.2402 7.42259 11.2402 9.99992C11.2402 12.5773 13.3296 14.6666 15.9069 14.6666Z" fill="white"/>
</svg>
