<svg width="8" height="8" viewBox="0 0 8 8" fill="none" xmlns="http://www.w3.org/2000/svg">
<path fill-rule="evenodd" clip-rule="evenodd" d="M3.43108 2.96973L6.05383 0.436764C6.15498 0.339264 6.15742 0.178389 6.06033 0.0776387C5.96283 -0.0231113 5.80195 -0.0263613 5.7012 0.0711387L3.06586 2.6167L0.430108 0.0711387C0.329764 -0.0263613 0.168889 -0.0231113 0.0709828 0.0776387C-0.026111 0.178389 -0.0232672 0.339264 0.0774828 0.436764L2.70023 2.96973L0.0774828 5.5027C-0.0232672 5.6002 -0.026111 5.76108 0.0709828 5.86183C0.120952 5.91342 0.187577 5.93942 0.253795 5.93942C0.31717 5.93942 0.380952 5.91586 0.430108 5.86833L3.06586 3.32276L5.7012 5.86833C5.75036 5.91586 5.81414 5.93942 5.87751 5.93942C5.94414 5.93942 6.01036 5.91342 6.06033 5.86183C6.15742 5.76108 6.15498 5.6002 6.05383 5.5027L3.43108 2.96973Z" transform="translate(1 1)" stroke="#FF5B68"/>
</svg>
