<svg width="54" height="54" viewBox="0 0 54 54" fill="none" xmlns="http://www.w3.org/2000/svg">
<path d="M33.8803 18.1307C34.4293 17.5817 35.3203 17.5817 35.8693 18.1307C36.4183 18.6798 36.4183 19.5708 35.8693 20.1198L28.9888 27.0003L35.8693 33.8807C36.4183 34.4298 36.4183 35.3208 35.8693 35.8698C35.5948 36.1442 35.2348 36.2815 34.8748 36.2815C34.5148 36.2815 34.1548 36.1442 33.8803 35.8698L26.9998 28.9893L20.1193 35.8698C19.8448 36.1442 19.4848 36.2815 19.1248 36.2815C18.7648 36.2815 18.4048 36.1442 18.1303 35.8698C17.5813 35.3208 17.5813 34.4298 18.1303 33.8807L25.0108 27.0003L18.1303 20.1198C17.5813 19.5708 17.5813 18.6798 18.1303 18.1307C18.6793 17.5817 19.5703 17.5817 20.1193 18.1307L26.9998 25.0112L33.8803 18.1307Z" fill="#FABD59"/>
<path fill-rule="evenodd" clip-rule="evenodd" d="M9 27C9 17.0596 17.0595 9 27 9C36.9405 9 45 17.0596 45 27C45 36.9404 36.9405 45 27 45C17.0595 45 9 36.9404 9 27ZM11.8125 27C11.8125 35.3746 18.6255 42.1875 27 42.1875C35.3745 42.1875 42.1875 35.3746 42.1875 27C42.1875 18.6254 35.3745 11.8125 27 11.8125C18.6255 11.8125 11.8125 18.6254 11.8125 27Z" fill="#FABD59"/>
</svg>
