<svg width="32" height="32" viewBox="0 0 32 32" fill="none" xmlns="http://www.w3.org/2000/svg">
<path fill-rule="evenodd" clip-rule="evenodd" d="M0 0H32V32H0V0Z" fill="white" fill-opacity="0.01"/>
<path fill-rule="evenodd" clip-rule="evenodd" d="M14.4863 2.97449C14.9941 2.97449 15.7334 3.83203 15.7334 3.83203L21.2051 8.93945C21.4141 9.1355 21.585 9.49451 21.585 9.73853V10.183V16.0505C21.585 17.0645 20.7627 17.887 19.748 17.887H1.83691C0.823242 17.887 0 17.0645 0 16.0505V10.1835V9.73901C0 9.49304 0.170898 9.13599 0.379883 8.93994L5.85059 3.83203C5.85059 3.83203 6.58984 2.97449 7.09766 2.97449H7.52148V1C7.52148 0.447998 7.96875 0 8.52148 0C9.07324 0 9.52148 0.447998 9.52148 1V2.97449H12.0635V1C12.0635 0.447998 12.5117 0 13.0635 0C13.6152 0 14.0635 0.447998 14.0635 1V2.97449H14.4863ZM2.49902 15.387H19.084L19.083 10.3805L14.0264 5.65894L13.9277 5.56702L13.8477 5.47449L7.7334 5.47644M2.49902 15.387V10.381V15.387ZM2.49902 10.381L7.55566 5.65955L2.49902 10.381ZM7.55566 5.65955L7.64453 5.57898L7.55566 5.65955ZM7.64453 5.57898L7.7334 5.47644L7.64453 5.57898Z" transform="translate(5.17188 10.04)" fill="black"/>
<path d="M15.6275 0H7.5005C3.359 0 0 3.359 0 7.5015V8.5035C0 8.786 0.229 9.0145 0.512 9.0145H5.1175C5.808 9.0145 6.368 8.4555 6.368 7.7645V5.188C6.368 4.498 6.9275 3.938 7.618 3.938H15.51C16.201 3.938 16.76 4.498 16.76 5.188V7.7645C16.76 8.4555 17.3195 9.0145 18.01 9.0145H22.617C22.899 9.0145 23.1275 8.786 23.1275 8.5035V7.5015C23.128 3.359 19.77 0 15.6275 0Z" transform="translate(4.39941 4)" fill="black"/>
<path fill-rule="evenodd" clip-rule="evenodd" d="M0 3.81653C0 1.70898 1.70898 0 3.81641 0C5.92383 0 7.63184 1.70898 7.63184 3.81653C7.63184 5.92395 5.92383 7.63196 3.81641 7.63196C1.70898 7.63196 0 5.92395 0 3.81653ZM2.88477 3.8175C2.88477 4.33093 3.30176 4.74805 3.81641 4.74805C4.33105 4.74805 4.74805 4.33093 4.74707 3.8175C4.74707 3.30298 4.33008 2.88599 3.81641 2.88599C3.30176 2.88599 2.88477 3.30298 2.88477 3.8175Z" transform="translate(12.1475 16.782)" fill="black"/>
</svg>
