<svg width="32" height="32" viewBox="0 0 32 32" fill="none" xmlns="http://www.w3.org/2000/svg">
<path fill-rule="evenodd" clip-rule="evenodd" d="M19.6582 13.0146C20.166 13.0146 20.9062 13.8721 20.9062 13.8721L26.377 18.9795C26.5859 19.1758 26.7578 19.5347 26.7578 19.7783V20.2231V26.0903C26.7578 27.1045 25.9336 27.9272 24.9199 27.9272H7.00977C5.99414 27.9272 5.17188 27.1045 5.17188 26.0903V20.2236V19.7788C5.17188 19.5332 5.3418 19.1763 5.55273 18.98L11.0215 13.8721C11.0215 13.8721 11.7617 13.0146 12.2695 13.0146H12.6934V11.04C12.6934 10.4883 13.1406 10.04 13.6934 10.04C14.2441 10.04 14.6934 10.4883 14.6934 11.04V13.0146H17.2363V11.04C17.2363 10.4883 17.6836 10.04 18.2363 10.04C18.7871 10.04 19.2363 10.4883 19.2363 11.04V13.0146H19.6582ZM7.67188 25.4272H24.2578L24.2559 20.4204L19.1992 15.6992L19.1016 15.6069L19.0215 15.5146L12.9062 15.5166M7.67188 25.4272V20.4214V25.4272ZM7.67188 20.4214L12.7285 15.6997L7.67188 20.4214ZM12.7285 15.6997L12.8164 15.6191L12.7285 15.6997ZM12.8164 15.6191L12.9062 15.5166L12.8164 15.6191Z" fill="#979797"/>
<path d="M20.0279 4H11.9009C7.75939 4 4.40039 7.359 4.40039 11.5015V12.5035C4.40039 12.786 4.62939 13.0145 4.91239 13.0145H9.51789C10.2084 13.0145 10.7684 12.4555 10.7684 11.7645V9.188C10.7684 8.498 11.3279 7.938 12.0184 7.938H19.9104C20.6014 7.938 21.1604 8.498 21.1604 9.188V11.7645C21.1604 12.4555 21.7199 13.0145 22.4104 13.0145H27.0174C27.2994 13.0145 27.5279 12.786 27.5279 12.5035V11.5015C27.5284 7.359 24.1704 4 20.0279 4Z" fill="#979797"/>
<path fill-rule="evenodd" clip-rule="evenodd" d="M12.1484 20.5984C12.1484 18.491 13.8574 16.782 15.9648 16.782C18.0723 16.782 19.7812 18.491 19.7812 20.5984C19.7812 22.7058 18.0723 24.4138 15.9648 24.4138C13.8574 24.4138 12.1484 22.7058 12.1484 20.5984ZM15.0332 20.5999C15.0332 21.113 15.4512 21.53 15.9648 21.53C16.4785 21.53 16.8965 21.113 16.8965 20.5999C16.8965 20.0852 16.4785 19.6682 15.9648 19.6682C15.4512 19.6682 15.0332 20.0852 15.0332 20.5999Z" fill="#979797"/>
</svg>
